<svg xmlns="http://www.w3.org/2000/svg" viewBox="0 0 360 62" width="360" height="62" role="img" aria-label="Needlework Guild of Minnesota">
  <g transform="translate(6 8) scale(1.36)"><path d="M28.5547 7.44547C26.2681 9.13737 25.721 5.92628 22.5099 6.92791C19.2989 7.92953 17.5135 3.98848 15.3588 4.91173C8.69503 7.76718 8.3302 -0.592457 10.5295 0.689564C12.7288 1.97158 9.43716 5.04174 3.59451 2.8711C-2.24814 0.700455 1.98638 9.17239 2.77963 12.1143C3.57287 15.0563 4.59607 17.9819 3.34335 18.7705C2.09063 19.5592 1.98055 21.0184 3.59389 21.9567C5.20724 22.8949 3.06149 29.717 3.75048 31.2627C4.43948 32.8085 22.5099 32.8715 23.2929 31.2627C25.0116 27.7311 18.3781 28.5168 17.9688 25.4583C17.7861 24.0923 18.5862 23.3231 18.4073 21.9567C18.292 21.0757 17.6044 20.6564 17.7496 19.78C17.9432 18.6113 19.5185 18.7835 19.9106 17.6664C20.262 16.6651 19.3568 15.9495 19.7226 14.9535C20.198 13.6594 21.7581 14.3958 22.5099 12.8083C23.2618 11.2209 23.9468 10.4799 26.2681 9.77992" stroke="#B87260" stroke-width="1.10903" stroke-linecap="round" fill="none"/><path d="M20.9651 5.25056L4.17261 31.89L18.68 3.92169C18.9674 3.36764 19.7428 3.22016 20.3898 3.59646C21.0369 3.97276 21.2977 4.72284 20.9651 5.25056ZM19.3148 4.29165L18.1796 6.2722C18.0453 6.50659 18.1635 6.82871 18.4437 6.99168C18.724 7.15465 19.0601 7.09675 19.1944 6.86236L20.3296 4.88181C20.464 4.64742 20.3457 4.3253 20.0655 4.16233C19.7852 3.99936 19.4492 4.05726 19.3148 4.29165Z" fill="#FFFFFF"/></g>
  <text x="64" y="32" font-family="'Cormorant Garamond', Georgia, serif" font-size="31" font-weight="500" fill="#FFFFFF">Needlework Guild</text>
  <text x="65" y="50" font-family="'DM Sans', Arial, sans-serif" font-size="11.5" font-weight="500" letter-spacing="2.7" fill="#B87260">OF MINNESOTA</text>
</svg>
